<svg id="Componente_1_1" data-name="Componente 1 – 1" xmlns="http://www.w3.org/2000/svg" xmlns:xlink="http://www.w3.org/1999/xlink" width="209.114" height="176.341" viewBox="0 0 209.114 176.341">
  <defs>
    <clipPath id="clip-path">
      <rect id="Retângulo_21" data-name="Retângulo 21" width="209.114" height="176.341" fill="none"/>
    </clipPath>
  </defs>
  <g id="Grupo_2" data-name="Grupo 2" clip-path="url(#clip-path)">
    <path id="Caminho_1" data-name="Caminho 1" d="M104.887,174.184c-21.209-5.142-38.793-19.407-57.588-29.8-16.285-9.6-37.052-15.734-45.18-32.445A21.921,21.921,0,0,1,4.394,89.347c7.035-9.282,18.785-12.533,30.656-13.8,8.848-.954,18.237-.939,27.271-1.935,34.113-2.793,50.871-24.873,71.648-48.908,9.586-10.418,19.385-20.424,32.764-23.73,21.437-5.221,37.714,11.35,41.278,31.558,4.172,25.005-4.206,50.123-13.123,73.323-17.458,40.9-38.127,80.109-89.8,68.381Z" fill="#056BD2"/>
    <path id="Caminho_2" data-name="Caminho 2" d="M194.922,105.853c7.014-18.248,13.69-37.683,14.192-57.316-8.643,5.708-16.15,13.544-23.55,21.587-25.416,29.4-45.915,56.41-87.644,59.827-11.05,1.217-22.536,1.2-33.359,2.366-9.27.992-18.471,2.981-26.158,7.236,3.053,1.553,6.062,3.136,8.93,4.828,18.795,10.4,36.38,24.66,57.588,29.8l.2.05c51.672,11.728,72.341-27.484,89.8-68.381" fill="#3399FF"/>
  </g>
</svg>
